<svg xmlns="http://www.w3.org/2000/svg" width="20.009" height="14.005" viewBox="-1780.503 9877.041 20.009 14.005"><g data-name="CompositeLayer"><path d="M-1760.629 9883.545c-.64-1.11-4.16-6.68-10.14-6.5-5.53.14-8.73 5-9.6 6.5a.998.998 0 0 0 0 1c.63 1.09 4 6.5 9.89 6.5h.25c5.53-.14 8.74-5 9.6-6.5a.998.998 0 0 0 0-1Zm-9.65 5.5c-4.31.1-7.12-3.59-8-5 1-1.61 3.61-4.9 7.61-5 4.29-.11 7.11 3.59 8 5-1.03 1.61-3.61 4.9-7.61 5Z" fill="#000000" fill-rule="evenodd" data-name="Tracé 116"/><path d="M-1770.499 9880.545a3.5 3.5 0 1 0 0 7 3.5 3.5 0 0 0 0-7Zm0 5a1.5 1.5 0 1 1 .001-3 1.5 1.5 0 0 1-.001 3Z" fill="#000000" fill-rule="evenodd" data-name="Tracé 117"/></g></svg>