<svg xmlns="http://www.w3.org/2000/svg" width="27.508" height="32.107" viewBox="0 0 27.508 32.107">
  <g id="Groupe_16932" data-name="Groupe 16932" transform="translate(-1159.25 -787.921)">
    <circle id="Ellipse_3261" data-name="Ellipse 3261" cx="12.226" cy="12.226" r="12.226" transform="translate(1161.033 794.115)" fill="#fff"/>
    <g id="ico-promoflash" transform="translate(1159.25 787.921)">
      <path id="Tracé_3725" data-name="Tracé 3725" d="M30.619,38.54l1.146-1.153a1.522,1.522,0,0,0,0-2.145l-.017-.012a1.521,1.521,0,0,0-2.139,0l-1.141,1.153a13.68,13.68,0,0,0-8.592-3.023A13.908,13.908,0,0,0,6.122,46.754a13.754,13.754,0,1,0,24.5-8.215ZM19.872,57.812a10.689,10.689,0,1,1,7.569-3.131A10.7,10.7,0,0,1,19.872,57.812Z" transform="translate(-6.117 -28.769)"/>
      <path id="Tracé_3726" data-name="Tracé 3726" d="M68.04,6.043h6.114a1.53,1.53,0,0,0,0-3.058H68.04a1.53,1.53,0,1,0,0,3.058Z" transform="translate(-57.341 -2.985)"/>
      <path id="Tracé_3727" data-name="Tracé 3727" d="M93.17,81.5l-3.118-1.058V75.3a1.53,1.53,0,1,0-3.059,0v6.164a1.53,1.53,0,0,0,1.034,1.511l4.158,1.409a1.529,1.529,0,1,0,.985-2.894Z" transform="translate(-74.768 -63.076)"/>
    </g>
  </g>
</svg>
