<svg xmlns="http://www.w3.org/2000/svg" width="27.125" height="27.12" viewBox="403.43 179.933 27.125 27.12"><path d="M430.126 206.595c-.61.61-1.56.61-2.17 0l-3.868-3.867a12.706 12.706 0 0 1-7.87 2.714c-7.055 0-12.788-5.733-12.788-12.755 0-7.021 5.733-12.754 12.754-12.754 7.022 0 12.755 5.733 12.755 12.754 0 2.985-1.018 5.7-2.714 7.87l3.867 3.867c.61.577.61 1.56.034 2.171Zm-13.908-23.344a9.555 9.555 0 0 0-9.565 9.566 9.555 9.555 0 0 0 9.565 9.566 9.555 9.555 0 0 0 9.566-9.566c0-5.292-4.308-9.566-9.566-9.566Z" fill-rule="evenodd" data-name="Tracé 36498"/></svg>